# xmcd
#
# Track frame offsets:
#	150
#	20935
#	37160
#	56001
#	70700
#	85117
#	100777
#	119145
#	135332
#	150453
#	168113
#	184912
#	202351
#
# Disc length: 2933 seconds
#
# Revision: 1
# Processed by: cddbd v1.5.2PL0 Copyright (c) Steve Scherf et al.
# Submitted via: audiograbber 1.83.01
#
DISCID=b80b730d
DTITLE=Fintelligens - Mun Tie Tai Maantie
DYEAR=2010
DGENRE=Rap
TTITLE0=Hinta (feat. Timo Pieni Huijaus)
TTITLE1=Kaikkien Aikojen Paras
TTITLE2=Maha M‰‰r‰‰
TTITLE3=Mun Tie Tai Maantie
TTITLE4=Mik‰ Boogie
TTITLE5=Suut K‰y
TTITLE6=Kaiku
TTITLE7=Runeberginkatu
TTITLE8=Sato Tai Paisto
TTITLE9=Valmiina (feat. Sean P.)
TTITLE10=Rotko (feat. Spekti and Tasis)
TTITLE11=H‰t‰numero (feat. Andu)
TTITLE12=Purettu Palasiin
EXTD=
EXTT0=
EXTT1=
EXTT2=
EXTT3=
EXTT4=
EXTT5=
EXTT6=
EXTT7=
EXTT8=
EXTT9=
EXTT10=
EXTT11=
EXTT12=
PLAYORDER=
